# xmcd
#
# Track frame offsets:
# 150
# 9056
# 13518
# 18025
# 22292
# 26938
# 31212
# 35719
# 39990
# 44675
# 49084
# 53707
# 58131
# 62304
# 66529
# 70493
# 74488
# 78396
# 82475
# 86496
# 90777
# 94797
# 98911
# 102683
# 106460
# 110382
# 113899
# 117730
# 121590
# 125484
# 129187
# 133138
# 136860
# 140834
# 144635
# 148818
# 152764
# 156592
# 160577
# 164482
# 168505
# 172214
# 176157
# 179912
# 183918
# 187704
# 191912
# 196019
# 199826
# 203974
# 207952
# 212177
# 215984
# 220154
# 224102
# 228411
# 232646
# 236708
# 241089
# 245114
# 249531
# 253693
# 258106
# 262243
# 266945
# 271484
# 275747
# 280704
# 285343
# 289876
# 294711
# 298774
# 303431
# 307508
# 312096
#
# Disc length: 4224 seconds
#
#
# Revision: 0
# Processed by: cddbd v1.5.1PL2 Copyright (c) Steve Scherf et al.
# Submitted via: Nero 7, 2, 0, 3 Yow
#
DISCID=96107e4b
DTITLE=Wayne Riker - Blues Encyclopedia
DYEAR=2006
DGENRE=Blues
TTITLE0=Blues Encyclopedia
TTITLE1=Blues Encyclopedia
TTITLE2=Blues Encyclopedia
TTITLE3=Blues Encyclopedia
TTITLE4=Blues Encyclopedia
TTITLE5=Blues Encyclopedia
TTITLE6=Blues Encyclopedia
TTITLE7=Blues Encyclopedia
TTITLE8=Blues Encyclopedia
TTITLE9=Blues Encyclopedia
TTITLE10=Blues Encyclopedia
TTITLE11=Blues Encyclopedia
TTITLE12=Blues Encyclopedia
TTITLE13=Blues Encyclopedia
TTITLE14=Blues Encyclopedia
TTITLE15=Blues Encyclopedia
TTITLE16=Blues Encyclopedia
TTITLE17=Blues Encyclopedia
TTITLE18=Blues Encyclopedia
TTITLE19=Blues Encyclopedia
TTITLE20=Blues Encyclopedia
TTITLE21=Blues Encyclopedia
TTITLE22=Blues Encyclopedia
TTITLE23=Blues Encyclopedia
TTITLE24=Blues Encyclopedia
TTITLE25=Blues Encyclopedia
TTITLE26=Blues Encyclopedia
TTITLE27=Blues Encyclopedia
TTITLE28=Blues Encyclopedia
TTITLE29=Blues Encyclopedia
TTITLE30=Blues Encyclopedia
TTITLE31=Blues Encyclopedia
TTITLE32=Blues Encyclopedia
TTITLE33=Blues Encyclopedia
TTITLE34=Blues Encyclopedia
TTITLE35=Blues Encyclopedia
TTITLE36=Blues Encyclopedia
TTITLE37=Blues Encyclopedia
TTITLE38=Blues Encyclopedia
TTITLE39=Blues Encyclopedia
TTITLE40=Blues Encyclopedia
TTITLE41=Blues Encyclopedia
TTITLE42=Blues Encyclopedia
TTITLE43=Blues Encyclopedia
TTITLE44=Blues Encyclopedia
TTITLE45=Blues Encyclopedia
TTITLE46=Blues Encyclopedia
TTITLE47=Blues Encyclopedia
TTITLE48=Blues Encyclopedia
TTITLE49=Blues Encyclopedia
TTITLE50=Blues Encyclopedia
TTITLE51=Blues Encyclopedia
TTITLE52=Blues Encyclopedia
TTITLE53=Blues Encyclopedia
TTITLE54=Blues Encyclopedia
TTITLE55=Blues Encyclopedia
TTITLE56=Blues Encyclopedia
TTITLE57=Blues Encyclopedia
TTITLE58=Blues Encyclopedia
TTITLE59=Blues Encyclopedia
TTITLE60=Blues Encyclopedia
TTITLE61=Blues Encyclopedia
TTITLE62=Blues Encyclopedia
TTITLE63=Blues Encyclopedia
TTITLE64=Blues Encyclopedia
TTITLE65=Blues Encyclopedia
TTITLE66=Blues Encyclopedia
TTITLE67=Blues Encyclopedia
TTITLE68=Blues Encyclopedia
TTITLE69=Blues Encyclopedia
TTITLE70=Blues Encyclopedia
TTITLE71=Blues Encyclopedia
TTITLE72=Blues Encyclopedia
TTITLE73=Blues Encyclopedia
TTITLE74=Blues Encyclopedia
EXTD=
EXTT0=Yow
EXTT1=Yow
EXTT2=Yow
EXTT3=Yow
EXTT4=Yow
EXTT5=Yow
EXTT6=Yow
EXTT7=Yow
EXTT8=Yow
EXTT9=Yow
EXTT10=Yow
EXTT11=Yow
EXTT12=Yow
EXTT13=Yow
EXTT14=Yow
EXTT15=Yow
EXTT16=Yow
EXTT17=Yow
EXTT18=Yow
EXTT19=Yow
EXTT20=Yow
EXTT21=Yow
EXTT22=Yow
EXTT23=Yow
EXTT24=Yow
EXTT25=Yow
EXTT26=Yow
EXTT27=Yow
EXTT28=Yow
EXTT29=Yow
EXTT30=Yow
EXTT31=Yow
EXTT32=Yow
EXTT33=Yow
EXTT34=Yow
EXTT35=Yow
EXTT36=Yow
EXTT37=Yow
EXTT38=Yow
EXTT39=Yow
EXTT40=Yow
EXTT41=Yow
EXTT42=Yow
EXTT43=Yow
EXTT44=Yow
EXTT45=Yow
EXTT46=Yow
EXTT47=Yow
EXTT48=Yow
EXTT49=Yow
EXTT50=Yow
EXTT51=Yow
EXTT52=Yow
EXTT53=Yow
EXTT54=Yow
EXTT55=Yow
EXTT56=Yow
EXTT57=Yow
EXTT58=Yow
EXTT59=Yow
EXTT60=Yow
EXTT61=Yow
EXTT62=Yow
EXTT63=Yow
EXTT64=Yow
EXTT65=Yow
EXTT66=Yow
EXTT67=Yow
EXTT68=Yow
EXTT69=Yow
EXTT70=Yow
EXTT71=Yow
EXTT72=Yow
EXTT73=Yow
EXTT74=Yow
PLAYORDER=
